<svg width="65" height="61" viewBox="0 0 65 61" fill="none" xmlns="http://www.w3.org/2000/svg">
<rect x="0.856445" width="64.1436" height="60.7757" rx="30.3879" fill="url(#paint0_linear_111_171)"/>
<path fill-rule="evenodd" clip-rule="evenodd" d="M15.3745 30.0672C24.7241 26.2076 30.9586 23.6631 34.0781 22.4337C42.9848 18.9237 44.8355 18.3139 46.0418 18.2938C46.3071 18.2894 46.9003 18.3517 47.2846 18.6471C47.609 18.8965 47.6983 19.2335 47.741 19.47C47.7837 19.7065 47.8369 20.2453 47.7946 20.6663C47.312 25.4713 45.2235 37.1319 44.161 42.5136C43.7115 44.7908 42.8262 45.5544 41.9692 45.6291C40.1068 45.7915 38.6925 44.4629 36.8886 43.3425C34.0659 41.5893 32.4712 40.4979 29.7312 38.7871C26.5647 36.81 28.6174 35.7234 30.422 33.9475C30.8943 33.4827 39.1004 26.4106 39.2592 25.769C39.2791 25.6888 39.2975 25.3897 39.11 25.2318C38.9224 25.0738 38.6457 25.1278 38.4459 25.1708C38.1628 25.2317 33.6535 28.0557 24.9179 33.6429C23.6379 34.4756 22.4785 34.8814 21.4398 34.8601C20.2947 34.8367 18.0919 34.2466 16.4544 33.7423C14.4459 33.1237 12.8495 32.7966 12.9885 31.746C13.0609 31.1988 13.8563 30.6392 15.3745 30.0672Z" fill="white"/>
<defs>
<linearGradient id="paint0_linear_111_171" x1="32.9283" y1="0" x2="32.9283" y2="60.325" gradientUnits="userSpaceOnUse">
<stop stop-color="#2AABEE"/>
<stop offset="1" stop-color="#229ED9"/>
</linearGradient>
</defs>
</svg>
