<svg width="65" height="61" viewBox="0 0 65 61" fill="none" xmlns="http://www.w3.org/2000/svg">
<rect x="0.211182" width="64.1436" height="60.7757" rx="30.3879" fill="#1D9BF0"/>
<path d="M26.4138 46.4175C40.6377 46.4175 48.4151 35.25 48.4151 25.5714C48.4151 25.2524 48.4151 24.9333 48.399 24.6294C49.9064 23.5962 51.2214 22.3047 52.2637 20.8309C50.8846 21.4083 49.3933 21.8033 47.8217 21.9857C49.4253 21.074 50.6441 19.6458 51.2214 17.9289C49.73 18.7645 48.0783 19.3723 46.3144 19.7066C44.9032 18.2783 42.8987 17.3971 40.6697 17.3971C36.4042 17.3971 32.9404 20.679 32.9404 24.7206C32.9404 25.2979 33.0046 25.8601 33.1489 26.3919C26.7185 26.088 21.0257 23.1708 17.2092 18.7342C16.5517 19.8129 16.1669 21.074 16.1669 22.4111C16.1669 24.9485 17.5299 27.1972 19.6146 28.5039C18.3477 28.4735 17.1611 28.1392 16.1187 27.5922C16.1187 27.6226 16.1187 27.653 16.1187 27.6834C16.1187 31.2388 18.7807 34.1864 22.3246 34.8701C21.6832 35.0373 20.9937 35.1284 20.2881 35.1284C19.791 35.1284 19.3099 35.0828 18.8288 34.9917C19.807 37.9089 22.6614 40.0209 26.045 40.0816C23.3991 42.0417 20.0636 43.2116 16.4395 43.2116C15.8141 43.2116 15.2047 43.1812 14.5953 43.1052C17.9789 45.202 22.052 46.4175 26.4138 46.4175Z" fill="white"/>
</svg>
